<svg viewBox="0 0 24 24" xmlns="http://www.w3.org/2000/svg" id="Single-Neutral-Actions-Add--Streamline-Ultimate.svg" height="24" width="24"><desc>Single Neutral Actions Add Streamline Icon: https://streamlinehq.com</desc><path d="M11.5 17.5a6 6 0 1 0 12 0 6 6 0 1 0 -12 0Z" fill="none" stroke="#000000" stroke-linecap="round" stroke-linejoin="round" stroke-width="1"></path><path d="m17.5 14.5 0 6" fill="none" stroke="#000000" stroke-linecap="round" stroke-linejoin="round" stroke-width="1"></path><path d="m20.5 17.5 -6 0" fill="none" stroke="#000000" stroke-linecap="round" stroke-linejoin="round" stroke-width="1"></path><path d="M9 16.5H0.5a8.719 8.719 0 0 1 0.7 -3.322c0.49 -0.981 2.539 -1.661 5.111 -2.613 0.695 -0.258 0.581 -2.074 0.273 -2.413a5.127 5.127 0 0 1 -1.34 -3.978A3.354 3.354 0 0 1 8.5 0.5a3.354 3.354 0 0 1 3.256 3.674 5.127 5.127 0 0 1 -1.336 3.978c-0.308 0.339 -0.422 2.155 0.273 2.413l1.307 0.481" fill="none" stroke="#000000" stroke-linecap="round" stroke-linejoin="round" stroke-width="1"></path></svg>