<svg viewBox="0 0 24 24" xmlns="http://www.w3.org/2000/svg" id="Single-Neutral-Actions-Key--Streamline-Ultimate.svg" height="24" width="24"><desc>Single Neutral Actions Key Streamline Icon: https://streamlinehq.com</desc><path d="M16.405 20.231a1.25 1.25 0 1 1 0 -1.768 1.251 1.251 0 0 1 0 1.768Z" fill="none" stroke="#000000" stroke-linecap="round" stroke-linejoin="round" stroke-width="1"></path><path d="m19.048 17.942 4.305 -4.295a0.5 0.5 0 0 0 0.147 -0.354V12a0.5 0.5 0 0 0 -0.5 -0.5h-1.3a0.5 0.5 0 0 0 -0.344 0.137l-4.429 4.184a4 4 0 1 0 2.122 2.121Z" fill="none" stroke="#000000" stroke-linecap="round" stroke-linejoin="round" stroke-width="1"></path><path d="M9 16.5H0.5a8.719 8.719 0 0 1 0.7 -3.322c0.49 -0.981 2.539 -1.661 5.111 -2.613 0.695 -0.258 0.581 -2.074 0.273 -2.413a5.127 5.127 0 0 1 -1.34 -3.978A3.354 3.354 0 0 1 8.5 0.5a3.354 3.354 0 0 1 3.256 3.674 5.127 5.127 0 0 1 -1.336 3.978c-0.308 0.339 -0.422 2.155 0.273 2.413 2.572 0.952 4.621 1.632 5.111 2.613" fill="none" stroke="#000000" stroke-linecap="round" stroke-linejoin="round" stroke-width="1"></path></svg>